<svg xmlns="http://www.w3.org/2000/svg" width="220mm" height="155mm" enable-background="new" viewBox="0 0 220 155">
  <defs>
    <filter id="a" color-interpolation-filters="sRGB">
      <feBlend in2="BackgroundImage" mode="saturation"/>
    </filter>
  </defs>
  <text x="61.97" y="49.77" fill="#fff" filter="url(#a)" font-family="sans-serif" font-size="21.33" font-weight="400" letter-spacing="0" text-anchor="middle" transform="translate(141.53 78.92) scale(.26458)" word-spacing="0" style="line-height:1.25;text-align:center">
    <tspan style="-inkscape-font-specification:Roboto;text-align:center" x="61.97" y="49.77" font-family="Roboto">Serial</tspan>
  </text>
  <path fill="#ff4040" stroke="#df0c0c" stroke-width="3.02" d="M2 41.87l32.5-37.8v18.9h54.16V4.07l32.5 37.8-32.5 37.8v-18.9H34.5v18.9z" filter="url(#a)" transform="translate(141.53 78.92) scale(.26458)"/>
  <path fill="#d8bb05" d="M140.53 110.53v40h-135v-40z"/>
  <path fill="#2c3079" d="M175.53 58.55h40V72.7h-40z"/>
  <path fill="#308480" d="M175.53 75.53h40v30h-40zm0-70h40v30h-40z"/>
  <path fill="#2c3079" d="M175.53 38.45h40v14.16h-40z"/>
  <path fill="#18713a" d="M90.53 5.53h50v100h-50z"/>
  <path fill="#1e914a" d="M90 5h50v100H90z"/>
  <path fill="#e72900" fill-opacity=".99" d="M5.53 5.53h50v100h-50z"/>
  <path fill="#393e9c" d="M175 58.02h40v14.15h-40z"/>
  <path fill="#ff4c25" d="M5 5h50v100H5z"/>
  <path fill="#399c99" d="M175 75h40v30h-40zm0-70h40v30h-40z"/>
  <path fill="#393e9c" d="M175 37.92h40v14.16h-40z"/>
  <path fill="#bad53a" stroke="#94ac24" stroke-opacity=".93" stroke-width=".79" d="M56.69 55l8.73-10v5h14.56v-5l8.73 10-8.73 10v-5H65.42v5z"/>
  <path fill="#ff4040" stroke="#df0c0c" stroke-width=".8" d="M141.74 20l8.6-10v5h14.33v-5l8.6 10-8.6 10v-5h-14.33v5z"/>
  <path fill="#0fde90" stroke="#0ec97f" stroke-width=".76" d="M142.55 65l8.15-5v2.5h13.6V60l8.15 5-8.16 5v-2.5H150.7V70zm0-20l8.15-5v2.5h13.6V40l8.15 5-8.16 5v-2.5H150.7V50z"/>
  <text x="114.98" y="202.79" fill="#fff" stroke-width=".27" font-family="Roboto Slab" font-size="10.58" font-weight="700" letter-spacing="0" transform="translate(0 -187)" word-spacing="0" style="line-height:1.25;-inkscape-font-specification:'Roboto Slab Bold'">
    <tspan style="-inkscape-font-specification:'Roboto Slab Bold';text-align:center" x="114.98" y="202.79" font-size="9.17" text-anchor="middle">Lab Host</tspan>
  </text>
  <text style="line-height:1.25" x="179.43" y="210.18" fill="#fff" stroke-width=".27" font-family="sans-serif" font-size="8.47" font-weight="400" letter-spacing="0" transform="translate(0 -187)" word-spacing="0">
    <tspan x="179.43" y="210.18" font-family="Roboto Slab" style="-inkscape-font-specification:'Roboto Slab'">Board 1</tspan>
  </text>
  <text x="178.28" y="231.19" fill="#fff" stroke-width=".27" font-family="sans-serif" font-size="4.23" font-weight="400" letter-spacing="0" transform="translate(0 -187)" word-spacing="0" style="line-height:1.10000002">
    <tspan style="line-height:1.10000002;-inkscape-font-specification:'Roboto Slab'" x="178.28" y="231.19" font-family="Roboto Slab">Board 1</tspan> <tspan style="line-height:1.10000002;-inkscape-font-specification:'Roboto Slab'" x="178.28" y="235.99" font-family="Roboto Slab">Power Switch</tspan>
  </text>
  <text x="157.6" y="209.09" fill="#fff" stroke-width=".27" font-family="sans-serif" font-size="5.64" font-weight="400" letter-spacing="0" text-anchor="middle" transform="translate(0 -187)" word-spacing="0" style="line-height:1.25;text-align:center">
    <tspan style="-inkscape-font-specification:Roboto;text-align:center" x="157.6" y="209.09" font-family="Roboto">Serial</tspan>
  </text>
  <text style="line-height:1.04999995;text-align:start" x="9.43" y="214.02" fill="#fff" stroke-width=".27" font-family="sans-serif" font-size="7.06" font-weight="400" letter-spacing="0" transform="translate(0 -187)" word-spacing="0">
    <tspan x="9.43" y="214.02" font-family="Roboto" font-size="6" style="line-height:1.04999995;-inkscape-font-specification:Roboto;text-align:start">This is the</tspan> <tspan x="9.43" y="221.43" font-family="Roboto" font-size="6" style="line-height:1.04999995;-inkscape-font-specification:Roboto;text-align:start">computer</tspan> <tspan x="9.43" y="228.83" font-family="Roboto" font-size="6" style="line-height:1.04999995;-inkscape-font-specification:Roboto;text-align:start">that tbot</tspan> <tspan x="9.43" y="236.24" font-family="Roboto" font-size="6" style="line-height:1.04999995;-inkscape-font-specification:Roboto;text-align:start">runs on.</tspan> <tspan x="9.43" y="243.65" font-family="Roboto" font-size="6" style="line-height:1.04999995;-inkscape-font-specification:Roboto;text-align:start">It has the test-</tspan> <tspan x="9.43" y="251.06" font-family="Roboto" font-size="6" style="line-height:1.04999995;-inkscape-font-specification:Roboto;text-align:start">cases and</tspan> <tspan x="9.43" y="258.47" font-family="Roboto" font-size="6" style="line-height:1.04999995;-inkscape-font-specification:Roboto;text-align:start">configuration</tspan> <tspan x="9.43" y="265.88" font-family="Roboto" font-size="6" style="line-height:1.04999995;-inkscape-font-specification:Roboto;text-align:start">stored.</tspan>
  </text>
  <text style="line-height:1.04999995;-inkscape-font-specification:Roboto;text-align:center" x="95.26" y="212.81" fill="#f6f6f6" stroke-width=".27" font-family="Roboto" font-size="7.06" font-weight="400" letter-spacing="0" text-anchor="middle" transform="translate(0 -187)" word-spacing="0">
    <tspan x="95.26" y="212.81" font-size="6" text-anchor="start" style="line-height:1.04999995;-inkscape-font-specification:Roboto;text-align:start">This PC is</tspan> <tspan x="95.26" y="220.22" font-size="6" text-anchor="start" style="line-height:1.04999995;-inkscape-font-specification:Roboto;text-align:start">located in the</tspan> <tspan x="95.26" y="227.63" font-size="6" text-anchor="start" style="line-height:1.04999995;-inkscape-font-specification:Roboto;text-align:start">lab and has</tspan> <tspan x="95.26" y="235.03" font-size="6" text-anchor="start" style="line-height:1.04999995;-inkscape-font-specification:Roboto;text-align:start">access to a</tspan> <tspan x="95.26" y="242.44" font-size="6" text-anchor="start" style="line-height:1.04999995;-inkscape-font-specification:Roboto;text-align:start">serial con-</tspan> <tspan x="95.26" y="249.85" font-size="6" text-anchor="start" style="line-height:1.04999995;-inkscape-font-specification:Roboto;text-align:start">nection to the</tspan> <tspan x="95.26" y="257.26" font-size="6" text-anchor="start" style="line-height:1.04999995;-inkscape-font-specification:Roboto;text-align:start">boards. It can</tspan> <tspan x="95.26" y="264.67" font-size="6" text-anchor="start" style="line-height:1.04999995;-inkscape-font-specification:Roboto;text-align:start">also toggle</tspan> <tspan x="95.26" y="272.08" font-size="6" text-anchor="start" style="line-height:1.04999995;-inkscape-font-specification:Roboto;text-align:start">their power.</tspan>
  </text>
  <path fill="#bad53a" stroke="#94ad24" stroke-opacity=".92" stroke-width=".8" d="M80 74.04v5H67.5V99h-5l10 9 10-9h-5v-9.96H80v5l9-10-9-10z"/>
  <text x="76.14" y="273.06" fill="#596817" stroke-width=".27" font-family="sans-serif" font-size="5.64" font-weight="400" letter-spacing="0" text-anchor="middle" transform="translate(0 -187)" word-spacing="0" style="text-align:center">
    <tspan style="-inkscape-font-specification:Roboto;text-align:center" x="76.14" y="273.06" dy="0" font-family="Roboto">SSH</tspan>
  </text>
  <path fill="#fadd27" d="M140 110v40H5v-40z"/>
  <text x="72.48" y="306.86" stroke-width=".27" font-family="Roboto" font-size="9.17" font-weight="700" letter-spacing="0" text-anchor="middle" transform="translate(0 -187)" word-spacing="0" style="-inkscape-font-specification:'Roboto Bold';text-align:center">
    <tspan style="-inkscape-font-specification:'Roboto Slab Bold';text-align:center" x="72.48" y="306.86" font-family="Roboto Slab">Buildhost</tspan>
  </text>
  <text x="10.68" y="315.17" stroke-width=".27" font-family="sans-serif" font-size="7.06" font-weight="400" letter-spacing="0" text-anchor="middle" transform="translate(0 -187)" word-spacing="0" style="line-height:1.04999995;text-align:center">
    <tspan style="line-height:1.04999995;-inkscape-font-specification:Roboto;text-align:start" x="10.68" y="315.17" font-family="Roboto" font-size="6" text-anchor="start">A separate machine that is used to</tspan> <tspan style="line-height:1.04999995;-inkscape-font-specification:Roboto;text-align:start" x="10.68" y="322.58" font-family="Roboto" font-size="6" text-anchor="start">compile your software automatically</tspan> <tspan style="line-height:1.04999995;-inkscape-font-specification:Roboto;text-align:start" x="10.68" y="329.99" font-family="Roboto" font-size="6" text-anchor="start">(eg. U-Boot or Linux)</tspan>
  </text>
  <text x="178.28" y="251.28" fill="#fff" stroke-width=".27" font-family="sans-serif" font-size="4.23" font-weight="400" letter-spacing="0" opacity=".93" transform="translate(0 -187)" word-spacing="0" style="line-height:1.10000002">
    <tspan style="line-height:1.10000002;-inkscape-font-specification:'Roboto Slab'" x="178.28" y="251.28" font-family="Roboto Slab">Board 2</tspan> <tspan style="line-height:1.10000002;-inkscape-font-specification:'Roboto Slab'" x="178.28" y="256.09" font-family="Roboto Slab">Power Switch</tspan>
  </text>
  <text style="line-height:1.25" x="179.43" y="280.18" fill="#fff" stroke-width=".27" font-family="sans-serif" font-size="8.47" font-weight="400" letter-spacing="0" opacity=".93" transform="translate(0 -187)" word-spacing="0">
    <tspan x="179.43" y="280.18" font-family="Roboto Slab" style="-inkscape-font-specification:'Roboto Slab'">Board 2</tspan>
  </text>
  <text x="72.83" y="244.01" fill="#434f10" fill-opacity=".87" stroke-width=".27" font-family="sans-serif" font-size="5.64" font-weight="400" letter-spacing="0" opacity=".93" text-anchor="middle" transform="translate(0 -187)" word-spacing="0" style="text-align:center">
    <tspan style="-inkscape-font-specification:Roboto;text-align:center" x="72.83" y="244.01" dy="0" font-family="Roboto">SSH</tspan>
  </text>
  <text style="line-height:1.25;-inkscape-font-specification:'Roboto Slab Bold'" x="29.78" y="15.79" fill="#fff" stroke-width=".26" font-family="Roboto Slab" font-size="10.58" font-weight="700" letter-spacing="0" word-spacing="0">
    <tspan x="29.78" y="15.79" font-size="9.17" text-anchor="middle" style="-inkscape-font-specification:'Roboto Slab Bold';text-align:center">tbot Host</tspan>
  </text>
</svg>
